<svg xmlns="http://www.w3.org/2000/svg" viewBox="0 0 960 600" width="960" height="600">
  <defs><linearGradient id="g" x1="0" y1="0" x2="1" y2="1"><stop offset="0" stop-color="#3b2a6b"/><stop offset="1" stop-color="#7a3b8c"/></linearGradient></defs>
  <rect width="960" height="600" fill="url(#g)"/>
  <g transform="translate(180,120)">
    <rect x="0" y="0" width="600" height="360" rx="16" fill="#f8fafc"/>
    <rect x="0" y="0" width="600" height="60" rx="16" fill="#e9d5ff"/><rect x="0" y="40" width="600" height="20" fill="#e9d5ff"/>
    <text x="28" y="40" font-family="Helvetica, Arial, sans-serif" font-size="22" font-weight="700" fill="#4c1d95">Weekly Accomplishments</text>
    <text x="28" y="100" font-family="Helvetica, Arial, sans-serif" font-size="16" font-weight="700" fill="#6d28d9">Focus Area: Customer Onboarding</text>
    <g fill="#475569" font-family="Helvetica, Arial, sans-serif" font-size="14">
      <circle cx="40" cy="128" r="4" fill="#7c3aed"/><rect x="54" y="123" width="380" height="10" rx="5" fill="#cbd5e1"/>
      <circle cx="40" cy="154" r="4" fill="#7c3aed"/><rect x="54" y="149" width="300" height="10" rx="5" fill="#cbd5e1"/>
      <circle cx="40" cy="180" r="4" fill="#7c3aed"/><rect x="54" y="175" width="420" height="10" rx="5" fill="#cbd5e1"/>
    </g>
    <text x="28" y="226" font-family="Helvetica, Arial, sans-serif" font-size="16" font-weight="700" fill="#6d28d9">Focus Area: Analytics Platform</text>
    <g>
      <circle cx="40" cy="254" r="4" fill="#7c3aed"/><rect x="54" y="249" width="340" height="10" rx="5" fill="#cbd5e1"/>
      <circle cx="40" cy="280" r="4" fill="#7c3aed"/><rect x="54" y="275" width="400" height="10" rx="5" fill="#cbd5e1"/>
      <circle cx="40" cy="306" r="4" fill="#7c3aed"/><rect x="54" y="301" width="260" height="10" rx="5" fill="#cbd5e1"/>
    </g>
    <g transform="translate(470,250)"><rect x="0" y="0" width="100" height="70" rx="10" fill="#7c3aed"/><path d="M14 18 L50 44 L86 18" fill="none" stroke="#fff" stroke-width="5" stroke-linecap="round" stroke-linejoin="round"/><rect x="14" y="18" width="72" height="38" rx="4" fill="none" stroke="#fff" stroke-width="5"/></g>
  </g>
</svg>
